    <svg width="510.9" height="127.1988226886124" viewBox="0 0 369.89473684210526 92.09272860643941"
        class="css-1j8o68f">
        <defs id="SvgjsDefs3715"></defs>
        <g id="SvgjsG3716" featurekey="QMusi1-0"
            transform="matrix(1.1513165580604061,0,0,1.1513165580604061,-11.51322487157976,-11.525764912940241)"
            fill="#64ee85">
            <path xmlns="http://www.w3.org/2000/svg"
                d="M33.3564453,41.6972046c2.6777344-0.3955078,4.7412109-2.6987305,4.7412109-5.4804077  c0-3.0595703-2.4921875-5.5478516-5.5556641-5.5478516h-0.1855469c-1.9609375,0-3.5556641-1.5908203-3.5556641-3.546875  s1.5947266-3.5478516,3.5556641-3.5478516s3.5566406,1.5917969,3.5566406,3.5478516c0,0.5527344,0.4472656,1,1,1s1-0.4472656,1-1  c0-2.7182007-1.9693604-4.980896-4.5566406-5.4530029v-1.0723877c0-0.5527344-0.4472656-1-1-1s-1,0.4472656-1,1v1.0723877  c-2.5870972,0.4721069-4.5556641,2.7348022-4.5556641,5.4530029c0,3.0585938,2.4921875,5.546875,5.5556641,5.546875h0.1855469  c1.9609375,0,3.5556641,1.5917969,3.5556641,3.5478516s-1.5947266,3.546875-3.5556641,3.546875  s-3.5556641-1.5908203-3.5556641-3.546875c0-0.5527344-0.4472656-1-1-1s-1,0.4472656-1,1  c0,2.6520996,1.8748779,4.8724976,4.3701172,5.416626v1.1087646c0,0.5527344,0.4472656,1,1,1s1-0.4472656,1-1V41.6972046z">
            </path>
            <path xmlns="http://www.w3.org/2000/svg"
                d="M61.1748047,32.9140625c-2.1251221,0-4.2349243,0.2432251-6.2919312,0.6968384  c0.3831177-6.0667114-1.7468872-12.2512207-6.4209595-16.9614868c-8.6738281-8.7402344-22.9121094-8.8662109-31.7402344-0.28125  c-4.2802734,4.1621094-6.6679688,9.7255859-6.7207031,15.6669922c-0.0537109,5.9384766,2.2324219,11.5419922,6.4355469,15.7783203  c4.4341431,4.4681396,10.3967896,6.7946167,16.4956055,6.6531982c-1.0994263,4.8545532-0.4588013,9.7307129-0.4331055,9.9180908  c0.3212891,3.1181641,1.5253906,7.1669922,3.0712891,10.3388672c1.3535156,4.5253906-7.1210938,7.9248047-7.2070312,7.9589844  c-0.3076172,0.1210938-0.5351562,0.3867188-0.6083984,0.7089844s0.0175781,0.6601562,0.2421875,0.9023438  c6.1054688,6.5693359,14.4394531,2.0732422,16.7470703,0.6181641C49.5810547,88.2431641,55.2470703,90,61.1748047,90  C77.0693359,90,90,77.1953125,90,61.4570312S77.0693359,32.9140625,61.1748047,32.9140625z M17.8564453,46.4052734  c-3.8242188-3.8544922-5.9042969-8.9511719-5.8554688-14.3525391c0.0478516-5.4023438,2.2197266-10.4638672,6.1152344-14.2509766  c8.0458984-7.8222656,21.0224609-7.7080078,28.9257812,0.2558594c7.8017578,7.8632812,7.8730469,20.2421875,0.1601562,28.1845703  c-0.1376953,0.1425781-0.2783203,0.2822266-0.4199219,0.4199219c-0.0263672,0.0253906-0.0507812,0.0517578-0.0732422,0.0791016  c-1.1894531,1.4384766-1.203125,2.7275391-1.0058594,3.5566406c0.2929688,1.2255859,1.1884766,2.1796875,2.0507812,2.8447266  c-5.0537109,1.5527344-7.859375-1.2568359-7.9853516-1.3867188c-0.1923828-0.2041016-0.4560547-0.3144531-0.7275391-0.3144531  c-0.1015625,0-0.2041016,0.015625-0.3037109,0.046875C31.3164062,53.8535156,23.3134766,51.90625,17.8564453,46.4052734z   M61.1748047,88c-5.7382812,0-11.2109375-1.7666016-15.8271484-5.109375  c-0.3544922-0.2558594-0.8320312-0.2539062-1.1826172,0.0058594c-0.0820312,0.0615234-7.8193359,5.6904297-13.6591797,1.0097656  c2.7822266-1.3789062,8.5322266-4.9013672,6.9492188-9.8574219c-0.0146484-0.046875-0.0332031-0.0917969-0.0546875-0.1367188  c-1.4677734-2.9863281-2.6103516-6.8066406-2.9150391-9.7646484c-0.0076904-0.0518799-0.6713867-5.1619873,0.5453491-9.8347778  c1.2590942-0.1467285,2.517334-0.3872681,3.7622681-0.7501831c0.8798828,0.7177734,2.9335938,2.0576172,6.0029297,2.0576172  c1.6064453,0,3.4921875-0.3671875,5.6328125-1.3837891C50.7832031,54.0683594,51.0058594,53.7089844,51,53.3173828  s-0.2412109-0.7441406-0.5996094-0.9003906c-0.6181641-0.2705078-2.4511719-1.3242188-2.7519531-2.5830078  c-0.1328125-0.5585938,0.0537109-1.140625,0.5693359-1.7783203c0.1425781-0.1396484,0.2832031-0.2802734,0.4208984-0.421875  c3.3231201-3.421875,5.3119507-7.59552,6.0095825-11.9237671c2.1234131-0.5245361,4.3173828-0.7959595,6.5265503-0.7959595  C75.9658203,34.9140625,88,46.8212891,88,61.4570312S75.9658203,88,61.1748047,88z">
            </path>
            <g id="SvgjsG4503" featurekey="symbolFeature-0"
                transform="matrix(0.32183908045977017,0,0,0.32183908045977017,44,43)" fill="#64ee85">
                <path xmlns="http://www.w3.org/2000/svg" d="M31.7,75.5c-5.7,1.7-11.7,2.9-18,3.6v6.4h18V75.5z">
                </path>
                <path xmlns="http://www.w3.org/2000/svg" d="M37.7,85.5h18V64.1c-5.6,3.8-11.6,6.9-18,9.3V85.5z">
                </path>
                <path xmlns="http://www.w3.org/2000/svg" d="M61.7,85.5h18V39.4c-5.2,7.9-11.2,14.6-18,20.2V85.5z">
                </path>
                <path xmlns="http://www.w3.org/2000/svg"
                    d="M37.7,69.1c6.5-2.6,12.5-5.9,18-10c2.1-1.5,4.1-3.2,6-4.9c6.9-6.2,12.9-13.7,18-22.5c0.4-0.6,0.7-1.3,1.1-2l5.4,2.5  l-1.5-17.9L70,24.8l5.4,2.5C61.7,52,41.5,65.7,13.7,69v6c6.3-0.7,12.3-2,18-3.8C33.8,70.6,35.8,69.9,37.7,69.1z">
                </path>
            </g>
        </g>
        <g id="SvgjsG3717" featurekey="UyNsn2-0"
            transform="matrix(3.9027652799020673,0,0,3.9027652799020673,110.43889409739981,-16.59768038994693)"
            fill="#f0f0f0">
            <path
                d="M2.46 19.94 c0 0.10666 -0.05666 0.16 -0.17 0.16 s-0.17 -0.05334 -0.17 -0.16 l0 -11.76 l-1.56 0 c-0.10666 0 -0.16 -0.05666 -0.16 -0.17 s0.05334 -0.17 0.16 -0.17 l6.52 0 c2.8 0 4.2 1.2733 4.2 3.82 s-1.4 3.82 -4.2 3.82 l-4.62 0 l0 4.46 z M2.46 8.18 l0 6.96 l4.62 0 c2.5734 0 3.86 -1.16 3.86 -3.48 s-1.2867 -3.48 -3.86 -3.48 l-4.62 0 z M19.46 16.259999999999998 c0 -1.0267 -0.31 -1.8667 -0.93 -2.52 s-1.4233 -0.98 -2.41 -0.98 s-1.79 0.32666 -2.41 0.98 s-0.93 1.4933 -0.93 2.52 s0.31 1.8667 0.93 2.52 s1.4233 0.98 2.41 0.98 s1.79 -0.32666 2.41 -0.98 s0.93 -1.4933 0.93 -2.52 z M12.440000000000001 16.259999999999998 c0 -1.1333 0.34334 -2.0566 1.03 -2.77 s1.57 -1.07 2.65 -1.07 s1.9633 0.35666 2.65 1.07 s1.03 1.6367 1.03 2.77 s-0.34334 2.0566 -1.03 2.77 s-1.57 1.07 -2.65 1.07 s-1.9633 -0.35666 -2.65 -1.07 s-1.03 -1.6367 -1.03 -2.77 z M24.9 20.1 c-0.70666 0 -1.2533 -0.18 -1.64 -0.54 s-0.58 -0.84 -0.58 -1.44 l0 -4.54 c0 -0.48 -0.32666 -0.72 -0.98 -0.72 l-0.74 0 c-0.12 0 -0.18 -0.05666 -0.18 -0.17 s0.06 -0.17 0.18 -0.17 l0.74 0 c0.88 0 1.32 0.35334 1.32 1.06 l0 4.54 c0 0.52 0.16666 0.92334 0.5 1.21 s0.79334 0.43 1.38 0.43 c1.52 0 2.6934 -0.76666 3.52 -2.3 l0 -4.86 c0 -0.12 0.05666 -0.18 0.17 -0.18 s0.17 0.06 0.17 0.18 l0 6.34 c0 0.48 0.32666 0.72 0.98 0.72 l0.76 0 c0.10666 0 0.16 0.05666 0.16 0.17 s-0.05334 0.17 -0.16 0.17 l-0.76 0 c-0.88 0 -1.32 -0.35334 -1.32 -1.06 l0 -0.86 c-0.88 1.3467 -2.0534 2.02 -3.52 2.02 z M32.919999999999995 24.42 c0 0.10666 -0.05664 0.16004 -0.16998 0.16004 s-0.17 -0.05334 -0.17 -0.16 l0 -11.56 l-1.72 0 c-0.12 0 -0.18 -0.05666 -0.18 -0.17 s0.06 -0.17 0.18 -0.17 l1.9 0 c0.10666 0 0.16 0.05334 0.16 0.16 l0 1.82 c0.90666 -1.3867 1.9933 -2.08 3.26 -2.08 c1.0933 0 1.9333 0.36334 2.52 1.09 s0.88 1.6433 0.88 2.75 s-0.29666 2.0234 -0.89 2.75 s-1.46 1.09 -2.6 1.09 s-2.1966 -0.47334 -3.17 -1.42 l0 5.74 z M36.17999999999999 19.76004 c0.93334 0 1.6766 -0.31666 2.23 -0.95 s0.83 -1.4867 0.83 -2.56 s-0.27334 -1.9233 -0.82 -2.55 s-1.2933 -0.94 -2.24 -0.94 c-1.32 0 -2.4066 0.76666 -3.26 2.3 l0 3.2 c0.37334 0.41334 0.85 0.76668 1.43 1.06 s1.19 0.44 1.83 0.44 z M45.13999999999999 20.1 c-1.1333 0 -2.02 -0.36338 -2.66 -1.09 s-0.96 -1.6533 -0.96 -2.78 s0.33334 -2.0434 1 -2.75 s1.54 -1.06 2.62 -1.06 s1.88 0.32666 2.4 0.98 s0.78 1.54 0.78 2.66 c0 0.12 -0.05334 0.18 -0.16 0.18 l-6.3 0 l0 0.02 c0 1.0667 0.29666 1.9167 0.89 2.55 s1.39 0.95 2.39 0.95 c1.28 0 2.22 -0.48 2.82 -1.44 c0.06666 -0.09334 0.14666 -0.11 0.24 -0.05 s0.11334 0.13666 0.06 0.23 c-0.66666 1.0667 -1.7067 1.6 -3.12 1.6 z M47.98 15.9 c0 -0.94666 -0.23338 -1.7067 -0.70004 -2.28 s-1.1733 -0.86 -2.12 -0.86 s-1.7133 0.28666 -2.3 0.86 s-0.92 1.3333 -1 2.28 l6.12 0 z M61.599999999999994 19.94 c0 0.10666 -0.06002 0.16 -0.18002 0.16 c-0.06666 0 -0.11332 -0.03334 -0.13998 -0.1 l-2 -4.02 l-7.62 0 l-1.98 4.02 c-0.02666 0.06666 -0.07332 0.1 -0.13998 0.1 c-0.12 0 -0.18 -0.05334 -0.18 -0.16 c0 -0.02666 0.0066602 -0.05332 0.02 -0.07998 l5.78 -11.68 l-1.3 0 c-0.10666 0 -0.16 -0.05666 -0.16 -0.17 s0.05334 -0.17 0.16 -0.17 l1.66 0 c0.06666 0 0.11332 0.02666 0.13998 0.08 l5.92 11.94 c0.01334 0.02666 0.02 0.05332 0.02 0.07998 z M55.48 8.3 l-3.64 7.34 l7.28 0 z M65.74 20 l-3.46 0 c-0.12 0 -0.18 -0.05666 -0.18 -0.17 s0.06 -0.17 0.18 -0.17 l1.56 0 l0 -11.48 l-1.56 0 c-0.12 0 -0.18 -0.05666 -0.18 -0.17 s0.06 -0.17 0.18 -0.17 l3.46 0 c0.10666 0 0.16 0.05666 0.16 0.17 s-0.05334 0.17 -0.16 0.17 l-1.56 0 l0 11.48 l1.56 0 c0.10666 0 0.16 0.05666 0.16 0.17 s-0.05334 0.17 -0.16 0.17 z">
            </path>
        </g>
    </svg>
